<?xml version="1.0" encoding="utf-8"?>
<!-- Generator: Adobe Illustrator 19.1.0, SVG Export Plug-In . SVG Version: 6.00 Build 0)  -->
<svg version="1.1" id="Layer_1" xmlns="http://www.w3.org/2000/svg" xmlns:xlink="http://www.w3.org/1999/xlink" x="0px" y="0px"
	 viewBox="165.3 225.4 291.3 386.1" style="enable-background:new 165.3 225.4 291.3 386.1;" xml:space="preserve">
<style type="text/css">
	.st0{fill:#FFFFFF;}
	.st1{enable-background:new    ;}
</style>
<polygon class="st0" points="306.1,465.4 210.3,396.2 210.3,258.5 237.9,278.2 237.9,383.8 306.1,433.1 371.8,383.9 371.8,308.3 
	306.1,359.7 258.1,323.5 258.1,292.7 306.1,327 395,258.6 395,396.4 "/>
<polygon class="st0" points="306.1,492.3 415,408.6 415,248 444.8,225.4 444.8,421 306.1,527.5 210.4,459.1 210.4,423.9 "/>
<g class="st1">
	<path class="st0" d="M172.3,582.7c3.9,0,7.6,1.4,10.3,4.2c5.1,5.1,5.1,14.9,0,20c-2.8,2.8-6.5,4.1-10.3,4.1h-7v-28.3L172.3,582.7
		L172.3,582.7z M172.3,605.3c2.3,0,4.5-0.7,6.1-2.3s2.3-3.8,2.3-6.2c0-2.3-0.7-4.5-2.3-6.2c-1.7-1.7-3.8-2.3-6.2-2.3H171v17H172.3
		L172.3,605.3z"/>
	<path class="st0" d="M306.1,611.5l-12.7-28.9h1.1h3.7h0.2h0.9l6.7,15.5l6.7-15.5h1.2h4.9L306.1,611.5z"/>
	<path class="st0" d="M442.8,601.1l13.8-18.9V611h-5.7v-11.7l-8.1,11.2l-8.1-11.2V611H429v-28.9L442.8,601.1z"/>
</g>
</svg>
